<svg width="64" height="56" viewBox="0 0 64 56" fill="none" xmlns="http://www.w3.org/2000/svg">
<rect width="64" height="56" rx="5" fill="#D9D9D9"/>
<path d="M51.2422 22.9063C51.5469 22.6641 52 22.8906 52 23.2734V39.25C52 41.3203 50.3203 43 48.25 43H15.75C13.6797 43 12 41.3203 12 39.25V23.2813C12 22.8906 12.4453 22.6719 12.7578 22.9141C14.5078 24.2734 16.8281 26 24.7969 31.7891C26.4453 32.9922 29.2266 35.5234 32 35.5078C34.7891 35.5313 37.625 32.9453 39.2109 31.7891C47.1797 26 49.4922 24.2656 51.2422 22.9063ZM32 33C33.8125 33.0313 36.4219 30.7188 37.7344 29.7656C48.1016 22.2422 48.8906 21.5859 51.2812 19.7109C51.7344 19.3594 52 18.8125 52 18.2344V16.75C52 14.6797 50.3203 13 48.25 13H15.75C13.6797 13 12 14.6797 12 16.75V18.2344C12 18.8125 12.2656 19.3516 12.7187 19.7109C15.1094 21.5781 15.8984 22.2422 26.2656 29.7656C27.5781 30.7188 30.1875 33.0313 32 33Z" fill="#303030"/>
</svg>
