<svg width="40" height="40" viewBox="0 0 40 40" fill="none" xmlns="http://www.w3.org/2000/svg">
<g filter="url(#filter0_d_21_14)">
<circle cx="20" cy="16" r="16" fill="#181818"/>
<path d="M23.8548 11.8763C22.8044 10.8927 21.4411 10.3535 19.9949 10.3548C17.3921 10.3571 15.1452 12.1417 14.5248 14.6172C14.4796 14.7974 14.319 14.9247 14.1333 14.9247H12.2078C11.9558 14.9247 11.7644 14.696 11.811 14.4483C12.5381 10.5875 15.9278 7.66663 20 7.66663C22.2328 7.66663 24.2604 8.54485 25.7565 9.97459L26.9566 8.77449C27.4647 8.26646 28.3333 8.62627 28.3333 9.34475V13.8494C28.3333 14.2948 27.9723 14.6559 27.5269 14.6559H23.0222C22.3037 14.6559 21.9439 13.7872 22.4519 13.2792L23.8548 11.8763V11.8763ZM12.4731 17.344H16.9778C17.6963 17.344 18.0561 18.2127 17.548 18.7208L16.1452 20.1236C17.1956 21.1073 18.559 21.6465 20.0052 21.6452C22.6066 21.6428 24.8545 19.8594 25.4752 17.3828C25.5204 17.2025 25.6809 17.0753 25.8667 17.0753H27.7923C28.0442 17.0753 28.2356 17.304 28.189 17.5516C27.4619 21.4125 24.0721 24.3333 20 24.3333C17.7672 24.3333 15.7395 23.4551 14.2434 22.0253L13.0433 23.2254C12.5353 23.7335 11.6667 23.3736 11.6667 22.6552V18.1505C11.6667 17.7051 12.0277 17.344 12.4731 17.344Z" fill="white"/>
</g>
<defs>
<filter id="filter0_d_21_14" x="0" y="0" width="40" height="40" filterUnits="userSpaceOnUse" color-interpolation-filters="sRGB">
<feFlood flood-opacity="0" result="BackgroundImageFix"/>
<feColorMatrix in="SourceAlpha" type="matrix" values="0 0 0 0 0 0 0 0 0 0 0 0 0 0 0 0 0 0 127 0" result="hardAlpha"/>
<feOffset dy="4"/>
<feGaussianBlur stdDeviation="2"/>
<feComposite in2="hardAlpha" operator="out"/>
<feColorMatrix type="matrix" values="0 0 0 0 0 0 0 0 0 0 0 0 0 0 0 0 0 0 0.25 0"/>
<feBlend mode="normal" in2="BackgroundImageFix" result="effect1_dropShadow_21_14"/>
<feBlend mode="normal" in="SourceGraphic" in2="effect1_dropShadow_21_14" result="shape"/>
</filter>
</defs>
</svg>
