<svg width="108" height="108" viewBox="0 0 108 108" fill="none" xmlns="http://www.w3.org/2000/svg">
<g filter="url(#filter0_d_20_38)">
<circle cx="54" cy="50" r="50" fill="#181818"/>
<path d="M52.7741 41.92L56.6998 42.9544C56.8332 42.9856 56.9524 43.0599 57.0392 43.1659C57.1259 43.2719 57.1752 43.4035 57.1794 43.5403C57.1794 43.8731 56.8836 44.148 56.5197 44.148H53.9445C53.667 44.1472 53.3922 44.0931 53.1351 43.9888C52.756 43.8297 52.3191 43.8659 52.0283 44.1335L50.6539 45.3994C50.5904 45.455 50.5355 45.5199 50.4912 45.5918C50.4345 45.6849 50.3967 45.7883 50.3801 45.896C50.3635 46.0037 50.3684 46.1137 50.3945 46.2195C50.4205 46.3254 50.4673 46.425 50.5321 46.5127C50.5969 46.6004 50.6784 46.6743 50.7719 46.7304C51.533 47.1872 52.3852 47.4712 53.2682 47.5623V48.8426C53.2682 49.4792 53.8346 50 54.5247 50H55.7812C56.472 50 57.0384 49.4792 57.0384 48.8426V47.5695C59.4204 47.3091 61.2223 45.3271 60.9084 43.0123C60.6805 41.3486 59.2837 40.0248 57.5404 39.5618L53.6147 38.5274C53.4814 38.4963 53.3621 38.4219 53.2753 38.316C53.1886 38.21 53.1393 38.0784 53.1351 37.9415C53.1351 37.6088 53.4309 37.3339 53.7948 37.3339H56.37C56.6485 37.3343 56.9242 37.3883 57.1823 37.493C57.5606 37.6522 57.9983 37.616 58.2891 37.3484L59.6634 36.0825C59.7249 36.028 59.7778 35.9646 59.8204 35.8944C59.8776 35.8013 59.9159 35.6979 59.9329 35.59C59.9499 35.4821 59.9453 35.3719 59.9195 35.2657C59.8937 35.1596 59.8471 35.0596 59.7824 34.9716C59.7177 34.8836 59.6362 34.8093 59.5426 34.7529C58.7812 34.2961 57.9288 34.0122 57.0456 33.9211V32.6393C57.0456 32.0027 56.4799 31.4819 55.7891 31.4819H54.5326C53.8418 31.4819 53.2761 32.0027 53.2761 32.6393V33.9124C50.897 34.1728 49.0915 36.1548 49.4054 38.4696C49.6326 40.1333 51.0337 41.4571 52.7741 41.92ZM74.0562 55.2154C73.2027 54.4414 71.8717 54.4921 70.9747 55.2154L64.2908 60.5611C63.4703 61.2193 62.4492 61.5767 61.3974 61.5738H52.8421C52.5352 61.5738 52.2408 61.4519 52.0237 61.2348C51.8067 61.0178 51.6847 60.7234 51.6847 60.4164C51.6847 60.1095 51.8067 59.8151 52.0237 59.598C52.2408 59.381 52.5352 59.259 52.8421 59.259H58.5053C59.6555 59.259 60.7268 58.4706 60.9105 57.3349C60.9332 57.2045 60.9443 57.0723 60.9438 56.9399C60.9427 56.3268 60.6983 55.7391 60.2643 55.306C59.8303 54.8728 59.2422 54.6295 58.629 54.6295H47.0552C45.1033 54.63 43.2109 55.3014 41.6951 56.5312L38.3314 59.259H34.324C34.0171 59.259 33.7227 59.381 33.5056 59.598C33.2886 59.8151 33.1666 60.1095 33.1666 60.4164V67.3607C33.1666 67.6677 33.2886 67.9621 33.5056 68.1791C33.7227 68.3962 34.0171 68.5181 34.324 68.5181H60.1315C61.183 68.5189 62.2034 68.1618 63.0249 67.5054L73.9644 58.7527C74.2275 58.5422 74.4415 58.2768 74.5915 57.9751C74.7414 57.6733 74.8237 57.3424 74.8325 57.0056C74.8413 56.6687 74.7765 56.334 74.6425 56.0248C74.5086 55.7156 74.3087 55.4394 74.0569 55.2154H74.0562Z" fill="white"/>
</g>
<defs>
<filter id="filter0_d_20_38" x="0" y="0" width="108" height="108" filterUnits="userSpaceOnUse" color-interpolation-filters="sRGB">
<feFlood flood-opacity="0" result="BackgroundImageFix"/>
<feColorMatrix in="SourceAlpha" type="matrix" values="0 0 0 0 0 0 0 0 0 0 0 0 0 0 0 0 0 0 127 0" result="hardAlpha"/>
<feOffset dy="4"/>
<feGaussianBlur stdDeviation="2"/>
<feComposite in2="hardAlpha" operator="out"/>
<feColorMatrix type="matrix" values="0 0 0 0 0 0 0 0 0 0 0 0 0 0 0 0 0 0 0.25 0"/>
<feBlend mode="normal" in2="BackgroundImageFix" result="effect1_dropShadow_20_38"/>
<feBlend mode="normal" in="SourceGraphic" in2="effect1_dropShadow_20_38" result="shape"/>
</filter>
</defs>
</svg>
