<svg width="95" height="95" viewBox="0 0 95 95" fill="none" xmlns="http://www.w3.org/2000/svg">
<circle cx="47.5" cy="47.5" r="47.5" fill="#D9D9D9"/>
<path d="M62.8884 39.8527C62.9138 40.2081 62.9138 40.5634 62.9138 40.9188C62.9138 51.7563 54.6651 64.2437 39.5889 64.2437C34.9442 64.2437 30.6295 62.8985 27 60.5635C27.6599 60.6396 28.2944 60.665 28.9797 60.665C32.8121 60.665 36.3401 59.3706 39.1574 57.1625C35.5533 57.0863 32.533 54.7259 31.4924 51.4772C32 51.5533 32.5076 51.604 33.0406 51.604C33.7767 51.604 34.5128 51.5025 35.198 51.3249C31.4417 50.5634 28.6243 47.2639 28.6243 43.2792V43.1777C29.7156 43.7868 30.9848 44.1675 32.3299 44.2182C30.1217 42.7461 28.6751 40.2334 28.6751 37.3908C28.6751 35.868 29.0811 34.472 29.7918 33.2537C33.8274 38.2284 39.8934 41.477 46.6954 41.8324C46.5685 41.2233 46.4923 40.5888 46.4923 39.9543C46.4923 35.4365 50.1472 31.7563 54.6903 31.7563C57.0507 31.7563 59.1827 32.7462 60.6802 34.3451C62.533 33.9898 64.3096 33.3045 65.8833 32.3654C65.2741 34.269 63.9797 35.868 62.2792 36.8832C63.929 36.7056 65.528 36.2487 67 35.6142C65.8834 37.2385 64.4874 38.6852 62.8884 39.8527V39.8527Z" fill="#303030"/>
</svg>
