<svg width="95" height="95" viewBox="0 0 95 95" fill="none" xmlns="http://www.w3.org/2000/svg">
<circle cx="47.5" cy="47.5" r="47.5" fill="#D9D9D9"/>
<path d="M66.2422 42.9063C66.5469 42.6641 67 42.8906 67 43.2734V59.25C67 61.3203 65.3203 63 63.25 63H30.75C28.6797 63 27 61.3203 27 59.25V43.2813C27 42.8906 27.4453 42.6719 27.7578 42.9141C29.5078 44.2734 31.8281 46 39.7969 51.7891C41.4453 52.9922 44.2266 55.5234 47 55.5078C49.7891 55.5313 52.625 52.9453 54.2109 51.7891C62.1797 46 64.4922 44.2656 66.2422 42.9063ZM47 53C48.8125 53.0313 51.4219 50.7188 52.7344 49.7656C63.1016 42.2422 63.8906 41.5859 66.2812 39.7109C66.7344 39.3594 67 38.8125 67 38.2344V36.75C67 34.6797 65.3203 33 63.25 33H30.75C28.6797 33 27 34.6797 27 36.75V38.2344C27 38.8125 27.2656 39.3516 27.7187 39.7109C30.1094 41.5781 30.8984 42.2422 41.2656 49.7656C42.5781 50.7188 45.1875 53.0313 47 53Z" fill="#303030"/>
</svg>
