<svg width="40" height="40" viewBox="0 0 40 40" fill="none" xmlns="http://www.w3.org/2000/svg">
<g filter="url(#filter0_d_21_14)">
<circle cx="20" cy="16" r="16" fill="#181818"/>
<path d="M26.7708 16H24.1666V13.9167C24.1666 12.7676 25.1009 11.8333 26.25 11.8333H26.5104C26.9433 11.8333 27.2916 11.485 27.2916 11.0521V9.48958C27.2916 9.05664 26.9433 8.70833 26.5104 8.70833H26.25C23.3724 8.70833 21.0416 11.0391 21.0416 13.9167V21.7292C21.0416 22.5918 21.7415 23.2917 22.6041 23.2917H26.7708C27.6334 23.2917 28.3333 22.5918 28.3333 21.7292V17.5625C28.3333 16.6999 27.6334 16 26.7708 16ZM17.3958 16H14.7916V13.9167C14.7916 12.7676 15.7259 11.8333 16.875 11.8333H17.1354C17.5683 11.8333 17.9166 11.485 17.9166 11.0521V9.48958C17.9166 9.05664 17.5683 8.70833 17.1354 8.70833H16.875C13.9974 8.70833 11.6666 11.0391 11.6666 13.9167V21.7292C11.6666 22.5918 12.3665 23.2917 13.2291 23.2917H17.3958C18.2584 23.2917 18.9583 22.5918 18.9583 21.7292V17.5625C18.9583 16.6999 18.2584 16 17.3958 16Z" fill="white"/>
</g>
<defs>
<filter id="filter0_d_21_14" x="0" y="0" width="40" height="40" filterUnits="userSpaceOnUse" color-interpolation-filters="sRGB">
<feFlood flood-opacity="0" result="BackgroundImageFix"/>
<feColorMatrix in="SourceAlpha" type="matrix" values="0 0 0 0 0 0 0 0 0 0 0 0 0 0 0 0 0 0 127 0" result="hardAlpha"/>
<feOffset dy="4"/>
<feGaussianBlur stdDeviation="2"/>
<feComposite in2="hardAlpha" operator="out"/>
<feColorMatrix type="matrix" values="0 0 0 0 0 0 0 0 0 0 0 0 0 0 0 0 0 0 0.25 0"/>
<feBlend mode="normal" in2="BackgroundImageFix" result="effect1_dropShadow_21_14"/>
<feBlend mode="normal" in="SourceGraphic" in2="effect1_dropShadow_21_14" result="shape"/>
</filter>
</defs>
</svg>
