<svg width="80" height="80" viewBox="0 0 80 80" fill="none" xmlns="http://www.w3.org/2000/svg">
<circle cx="40" cy="40" r="40" fill="#E0DFDF"/>
<path d="M40 20C28.9516 20 20 28.9516 20 40C20 51.0484 28.9516 60 40 60C51.0484 60 60 51.0484 60 40C60 28.9516 51.0484 20 40 20ZM41.9355 36.0806C42.2016 32.6855 44.5323 30.3226 46.4516 30.3226C48.371 30.3226 50.7016 32.6855 50.9677 36.0806C51.0242 36.7742 50.0968 37.0403 49.7661 36.4435L49 35.0726C48.379 33.9677 47.4516 33.3306 46.4597 33.3306C45.4677 33.3306 44.5403 33.9677 43.9194 35.0726L43.1532 36.4435C42.8145 37.0403 41.879 36.7742 41.9355 36.0806ZM29.0323 36.0806C29.2984 32.6855 31.629 30.3226 33.5484 30.3226C35.4677 30.3226 37.7984 32.6855 38.0645 36.0806C38.121 36.7742 37.1935 37.0403 36.8629 36.4435L36.0968 35.0726C35.4758 33.9677 34.5484 33.3306 33.5565 33.3306C32.5645 33.3306 31.6371 33.9677 31.0161 35.0726L30.25 36.4435C29.9032 37.0403 28.9758 36.7661 29.0323 36.0806ZM52.1694 44.0323C51.4516 49.7581 46.5645 54.1935 40.6452 54.1935H39.3548C33.4355 54.1935 28.5484 49.7581 27.8306 44.0323C27.7339 43.2661 28.3387 42.5806 29.1129 42.5806H50.8871C51.6613 42.5806 52.2661 43.2581 52.1694 44.0323Z" fill="#303030"/>
</svg>
