<svg width="80" height="80" viewBox="0 0 80 80" fill="none" xmlns="http://www.w3.org/2000/svg">
<circle cx="40" cy="40" r="40" fill="#E0DFDF"/>
<path d="M20.9697 31.5645L39.1679 39.8198C39.6991 40.0612 40.2999 40.0612 40.8311 39.8198L59.0293 31.5645C60.3223 30.9778 60.3223 29.0239 59.0293 28.4372L40.8319 20.181C40.5709 20.0617 40.2873 20 40.0003 20C39.7133 20 39.4297 20.0617 39.1687 20.181L20.9697 28.4364C19.6768 29.0231 19.6768 30.9778 20.9697 31.5645ZM59.0301 38.4613L54.4919 36.4043L41.8639 42.1284C41.2733 42.3964 40.646 42.5323 39.9999 42.5323C39.3538 42.5323 38.7273 42.3964 38.1359 42.1284L25.5087 36.4043L20.9697 38.4613C19.6768 39.0472 19.6768 41.0003 20.9697 41.5862L39.1679 49.8353C39.6991 50.0759 40.2999 50.0759 40.8311 49.8353L59.0301 41.5862C60.323 41.0003 60.323 39.0472 59.0301 38.4613V38.4613ZM59.0301 48.4455L54.5091 46.3963L41.8639 52.1282C41.2733 52.3962 40.646 52.5321 39.9999 52.5321C39.3538 52.5321 38.7273 52.3962 38.1359 52.1282L25.4915 46.3963L20.9697 48.4455C19.6768 49.0314 19.6768 50.9845 20.9697 51.5704L39.1679 59.8195C39.6991 60.0602 40.2999 60.0602 40.8311 59.8195L59.0301 51.5704C60.323 50.9845 60.323 49.0314 59.0301 48.4455V48.4455Z" fill="#303030"/>
</svg>
