<svg width="214" height="70" viewBox="0 0 214 70" fill="none" xmlns="http://www.w3.org/2000/svg">
<circle cx="35" cy="35" r="35" fill="#252424"/>
<path d="M14.584 19.5833C14.584 16.8219 16.8226 14.5833 19.584 14.5833H55.4173V25.7798C55.4173 28.5412 53.1787 30.7798 50.4173 30.7798H14.584V19.5833Z" fill="white"/>
<path d="M14.584 32.6047H30.5622V50.4167C30.5622 53.1781 28.3237 55.4167 25.5622 55.4167H14.584V32.6047Z" fill="white"/>
<path d="M32.8457 48.5731L32.8457 34.2016L39.8629 34.2016C43.8314 34.2016 47.0486 37.4188 47.0486 41.3873V41.3873C47.0486 45.3559 43.8314 48.5731 39.8628 48.5731L32.8457 48.5731Z" fill="white"/>
<path d="M91.2756 49V22.8182H108.611V27.3821H96.8111V33.6207H107.46V38.1847H96.8111V49H91.2756ZM123.594 40.6392V29.3636H129.04V49H123.811V45.4332H123.607C123.163 46.5838 122.426 47.5085 121.395 48.2074C120.372 48.9062 119.124 49.2557 117.649 49.2557C116.337 49.2557 115.182 48.9574 114.185 48.3608C113.188 47.7642 112.408 46.9162 111.845 45.8168C111.291 44.7173 111.01 43.4006 111.001 41.8665V29.3636H116.447V40.8949C116.456 42.054 116.767 42.9702 117.381 43.6435C117.994 44.3168 118.817 44.6534 119.848 44.6534C120.504 44.6534 121.118 44.5043 121.689 44.206C122.26 43.8991 122.72 43.4474 123.07 42.8509C123.428 42.2543 123.602 41.517 123.594 40.6392ZM133.396 49V29.3636H138.676V32.7898H138.88C139.238 31.571 139.839 30.6506 140.683 30.0284C141.527 29.3977 142.498 29.0824 143.598 29.0824C143.87 29.0824 144.164 29.0994 144.48 29.1335C144.795 29.1676 145.072 29.2145 145.311 29.2741V34.1065C145.055 34.0298 144.701 33.9616 144.25 33.902C143.798 33.8423 143.385 33.8125 143.01 33.8125C142.208 33.8125 141.493 33.9872 140.862 34.3366C140.24 34.6776 139.745 35.1548 139.379 35.7685C139.021 36.3821 138.842 37.0895 138.842 37.8906V49H133.396ZM153.572 37.6477V49H148.126V29.3636H153.317V32.8281H153.547C153.982 31.6861 154.71 30.7827 155.733 30.1179C156.756 29.4446 157.996 29.108 159.453 29.108C160.817 29.108 162.006 29.4062 163.02 30.0028C164.034 30.5994 164.822 31.4517 165.385 32.5597C165.947 33.6591 166.229 34.9716 166.229 36.4972V49H160.783V37.4688C160.791 36.267 160.484 35.3295 159.862 34.6562C159.24 33.9744 158.384 33.6335 157.293 33.6335C156.56 33.6335 155.912 33.7912 155.349 34.1065C154.795 34.4219 154.361 34.8821 154.045 35.4872C153.739 36.0838 153.581 36.804 153.572 37.6477ZM170.521 49V29.3636H175.967V49H170.521ZM173.257 26.8324C172.447 26.8324 171.752 26.5639 171.173 26.027C170.602 25.4815 170.316 24.8295 170.316 24.071C170.316 23.321 170.602 22.6776 171.173 22.1406C171.752 21.5952 172.447 21.3224 173.257 21.3224C174.066 21.3224 174.757 21.5952 175.328 22.1406C175.907 22.6776 176.197 23.321 176.197 24.071C176.197 24.8295 175.907 25.4815 175.328 26.027C174.757 26.5639 174.066 26.8324 173.257 26.8324ZM190.774 29.3636V33.4545H178.949V29.3636H190.774ZM181.634 24.6591H187.08V42.9659C187.08 43.4687 187.156 43.8608 187.31 44.142C187.463 44.4148 187.676 44.6065 187.949 44.7173C188.23 44.8281 188.554 44.8835 188.92 44.8835C189.176 44.8835 189.432 44.8622 189.688 44.8196C189.943 44.7685 190.139 44.7301 190.276 44.7045L191.132 48.7571C190.859 48.8423 190.476 48.9403 189.982 49.0511C189.487 49.1705 188.886 49.2429 188.179 49.2685C186.866 49.3196 185.716 49.1449 184.727 48.7443C183.747 48.3437 182.984 47.7216 182.439 46.8778C181.893 46.0341 181.625 44.9687 181.634 43.6818V24.6591ZM199.921 49.3707C198.668 49.3707 197.552 49.1534 196.572 48.7188C195.592 48.2756 194.816 47.6236 194.245 46.7628C193.683 45.8935 193.401 44.8111 193.401 43.5156C193.401 42.4247 193.602 41.5085 194.002 40.767C194.403 40.0256 194.948 39.429 195.638 38.9773C196.329 38.5256 197.113 38.1847 197.991 37.9545C198.877 37.7244 199.806 37.5625 200.778 37.4688C201.92 37.3494 202.84 37.2386 203.539 37.1364C204.238 37.0256 204.745 36.8636 205.06 36.6506C205.376 36.4375 205.533 36.1222 205.533 35.7045V35.6278C205.533 34.8182 205.278 34.1918 204.766 33.7486C204.263 33.3054 203.548 33.0838 202.619 33.0838C201.638 33.0838 200.859 33.3011 200.279 33.7358C199.7 34.1619 199.316 34.6989 199.129 35.3466L194.092 34.9375C194.347 33.7443 194.85 32.7131 195.6 31.8438C196.35 30.9659 197.317 30.2926 198.502 29.8239C199.695 29.3466 201.076 29.108 202.644 29.108C203.735 29.108 204.779 29.2358 205.776 29.4915C206.782 29.7472 207.673 30.1435 208.448 30.6804C209.232 31.2173 209.85 31.9077 210.302 32.7514C210.754 33.5866 210.979 34.5881 210.979 35.7557V49H205.815V46.277H205.661C205.346 46.8906 204.924 47.4318 204.396 47.9006C203.867 48.3608 203.232 48.723 202.491 48.9872C201.749 49.2429 200.893 49.3707 199.921 49.3707ZM201.481 45.6122C202.282 45.6122 202.989 45.4545 203.603 45.1392C204.217 44.8153 204.698 44.3807 205.048 43.8352C205.397 43.2898 205.572 42.6719 205.572 41.9815V39.8977C205.401 40.0085 205.167 40.1108 204.869 40.2045C204.579 40.2898 204.251 40.3707 203.884 40.4474C203.518 40.5156 203.151 40.5795 202.785 40.6392C202.418 40.6903 202.086 40.7372 201.788 40.7798C201.148 40.8736 200.59 41.0227 200.113 41.2273C199.636 41.4318 199.265 41.7088 199.001 42.0582C198.737 42.3991 198.604 42.8253 198.604 43.3366C198.604 44.0781 198.873 44.6449 199.41 45.0369C199.955 45.4205 200.646 45.6122 201.481 45.6122Z" fill="#252424"/>
</svg>
