<svg width="95" height="95" viewBox="0 0 95 95" fill="none" xmlns="http://www.w3.org/2000/svg">
<circle cx="47.5" cy="47.5" r="47.5" fill="#D9D9D9"/>
<path d="M40.379 59.9029C40.379 60.0642 40.1935 60.1932 39.9597 60.1932C39.6935 60.2174 39.5081 60.0884 39.5081 59.9029C39.5081 59.7416 39.6935 59.6126 39.9274 59.6126C40.1694 59.5884 40.379 59.7174 40.379 59.9029ZM37.871 59.54C37.8145 59.7013 37.9758 59.8868 38.2177 59.9352C38.4274 60.0158 38.6694 59.9352 38.7177 59.7739C38.7661 59.6126 38.6129 59.4271 38.371 59.3545C38.1613 59.2981 37.9274 59.3787 37.871 59.54ZM41.4355 59.4029C41.2016 59.4594 41.0403 59.6126 41.0645 59.7981C41.0887 59.9594 41.2984 60.0642 41.5403 60.0078C41.7742 59.9513 41.9355 59.7981 41.9113 59.6368C41.8871 59.4836 41.6694 59.3787 41.4355 59.4029ZM46.7419 28.4997C35.5565 28.4997 27 36.9916 27 48.1771C27 57.1207 32.629 64.7739 40.6694 67.4674C41.7016 67.6529 42.0645 67.0158 42.0645 66.4916C42.0645 65.9916 42.0403 63.2336 42.0403 61.54C42.0403 61.54 36.3952 62.7497 35.2097 59.1368C35.2097 59.1368 34.2903 56.79 32.9677 56.1852C32.9677 56.1852 31.121 54.9191 33.0968 54.9432C33.0968 54.9432 35.1048 55.1045 36.2097 57.0239C37.9758 60.1368 40.9355 59.2416 42.0887 58.7094C42.2742 57.4191 42.7984 56.5239 43.379 55.9916C38.871 55.4916 34.3226 54.8384 34.3226 47.0803C34.3226 44.8626 34.9355 43.7497 36.2258 42.3303C36.0161 41.8062 35.3306 39.6449 36.4355 36.8545C38.121 36.3303 42 39.032 42 39.032C43.6129 38.5803 45.3468 38.3465 47.0645 38.3465C48.7823 38.3465 50.5161 38.5803 52.129 39.032C52.129 39.032 56.0081 36.3223 57.6935 36.8545C58.7984 39.6529 58.1129 41.8062 57.9032 42.3303C59.1935 43.7578 59.9839 44.8707 59.9839 47.0803C59.9839 54.8626 55.2339 55.4836 50.7258 55.9916C51.4677 56.6287 52.0968 57.8384 52.0968 59.7336C52.0968 62.4513 52.0726 65.8142 52.0726 66.4755C52.0726 66.9997 52.4435 67.6368 53.4677 67.4513C61.5323 64.7739 67 57.1207 67 48.1771C67 36.9916 57.9274 28.4997 46.7419 28.4997ZM34.8387 56.3142C34.7339 56.3949 34.7581 56.5803 34.8952 56.7336C35.0242 56.8626 35.2097 56.9191 35.3145 56.8142C35.4194 56.7336 35.3952 56.5481 35.2581 56.3949C35.129 56.2658 34.9435 56.2094 34.8387 56.3142ZM33.9677 55.661C33.9113 55.7658 33.9919 55.8949 34.1532 55.9755C34.2823 56.0562 34.4435 56.032 34.5 55.9191C34.5565 55.8142 34.4758 55.6852 34.3145 55.6045C34.1532 55.5562 34.0242 55.5803 33.9677 55.661ZM36.5806 58.532C36.4516 58.6368 36.5 58.8787 36.6855 59.032C36.871 59.2174 37.1048 59.2416 37.2097 59.1126C37.3145 59.0078 37.2661 58.7658 37.1048 58.6126C36.9274 58.4271 36.6855 58.4029 36.5806 58.532ZM35.6613 57.3465C35.5323 57.4271 35.5323 57.6368 35.6613 57.8223C35.7903 58.0078 36.0081 58.0884 36.1129 58.0078C36.2419 57.9029 36.2419 57.6932 36.1129 57.5078C36 57.3223 35.7903 57.2416 35.6613 57.3465Z" fill="#303030"/>
</svg>
